<?xml version="1.0" encoding="iso-8859-1"?>
<!-- Generator: Adobe Illustrator 19.0.0, SVG Export Plug-In . SVG Version: 6.00 Build 0)  -->
<svg version="1.1" id="Layer_1" xmlns="http://www.w3.org/2000/svg" xmlns:xlink="http://www.w3.org/1999/xlink" x="0px" y="0px"
	 viewBox="0 0 512 512" style="enable-background:new 0 0 512 512;" xml:space="preserve">
<polyline style="fill:#00DDC2;" points="384.951,235.102 504.163,235.102 504.163,276.898 384.951,276.898 "/>
<path style="fill:#FDC35C;" d="M386.612,256c0-8.301-0.784-16.417-2.264-24.289l43.072-44.517l-26.122-45.245l-60.107,15.047
	c-12.249-10.549-26.48-18.859-42.054-24.307l-17.014-59.546h-52.245l-17.013,59.546c-15.575,5.448-29.806,13.757-42.054,24.307
	l-60.108-15.048L84.58,187.193l43.072,44.517c-1.481,7.872-2.264,15.989-2.264,24.29c0,8.301,0.784,16.417,2.263,24.289
	L84.58,324.807l26.122,45.245l60.108-15.047c12.249,10.549,26.48,18.859,42.054,24.307l17.013,59.545h52.245l17.013-59.546
	c15.575-5.448,29.806-13.758,42.054-24.307l60.108,15.047l26.122-45.245l-43.072-44.518
	C385.829,272.417,386.612,264.301,386.612,256z"/>
<circle style="fill:#FFFFFF;" cx="256" cy="256" r="78.367"/>
<polyline style="fill:#00DDC2;" points="331.546,276.898 201.143,276.898 201.143,235.102 331.546,235.102 "/>
<polygon style="fill:#FFFFFF;" points="133.224,203.755 175.02,235.102 175.02,276.898 133.224,308.245 39.184,256 "/>
<g>
	<rect x="175.02" y="214.204" style="fill:#FF5252;" width="26.122" height="83.592"/>
	<rect x="7.837" y="240.327" style="fill:#FF5252;" width="31.347" height="31.347"/>
</g>
<path d="M512,227.265h-41.796v-10.449h-15.673v10.449h-54.984l37.611-38.871l-32.034-55.483l-61.967,15.514
	c-11.349-9.216-23.961-16.505-37.584-21.72l-17.539-61.398h-64.068l-17.539,61.398c-13.623,5.215-26.235,12.504-37.584,21.72
	l-61.967-15.514l-32.033,55.482l16.492,17.049l11.265-10.897l-8.271-8.551l20.211-35.006l58.309,14.597l3.077-2.652
	c11.696-10.079,24.994-17.764,39.526-22.842l3.834-1.34l16.502-57.77h40.422l16.503,57.77l3.834,1.34
	c14.532,5.078,27.831,12.763,39.526,22.843l3.077,2.652l58.309-14.597l20.21,35.005l-41.779,43.178l0.75,3.985
	c1.415,7.512,2.132,15.197,2.132,22.844s-0.717,15.332-2.132,22.844l-0.75,3.986l41.78,43.179l-20.211,35.004l-58.31-14.597
	l-3.077,2.652c-11.696,10.079-24.994,17.764-39.526,22.842l-3.834,1.34L276.21,431.02h-40.422l-16.503-57.77l-3.834-1.34
	c-14.532-5.078-27.831-12.763-39.526-22.842l-3.077-2.652l-58.309,14.597l-20.211-35.005l8.271-8.551l-11.265-10.897l-16.492,17.048
	l32.033,55.482l61.967-15.514c11.349,9.216,23.961,16.505,37.584,21.72l17.539,61.398h64.068l17.539-61.398
	c13.623-5.215,26.235-12.504,37.584-21.72l61.967,15.514l32.034-55.483l-44.413-45.9c1.132-7.171,1.704-14.454,1.704-21.705
	c0-4.353-0.232-8.715-0.642-13.061h60.725v26.122h-48.682v15.673h48.682v10.449h15.673v-10.449H512V227.265z M496.327,269.061
	h-26.122v-26.122h26.122V269.061z"/>
<path d="M47.02,279.51v-10.192l86.84,48.245l33.323-24.992v13.061h41.796v-20.898h111.408
	c-11.024,24.604-35.728,41.796-64.388,41.796c-15.403,0-30.03-4.877-42.301-14.101l-9.419,12.528
	c15.008,11.283,32.892,17.246,51.719,17.246c47.533,0,86.204-38.671,86.204-86.204S303.533,169.796,256,169.796
	c-28.281,0-54.301,13.594-70.466,36.571h-18.35v13.061l-33.323-24.992l-86.84,48.245V232.49H31.347v-61.43
	c9.121-3.235,15.673-11.945,15.673-22.162c0-12.964-10.546-23.51-23.51-23.51S0,135.934,0,148.898
	c0,10.217,6.553,18.927,15.673,22.162v61.43H0v47.02h15.673v61.43C6.553,344.175,0,352.885,0,363.102
	c0,12.964,10.546,23.51,23.51,23.51s23.51-10.546,23.51-23.51c0-10.217-6.553-18.927-15.673-22.162v-61.43H47.02z M23.51,141.061
	c4.322,0,7.837,3.515,7.837,7.837s-3.515,7.837-7.837,7.837s-7.837-3.515-7.837-7.837S19.189,141.061,23.51,141.061z M23.51,370.939
	c-4.322,0-7.837-3.515-7.837-7.837s3.515-7.837,7.837-7.837s7.837,3.515,7.837,7.837S27.832,370.939,23.51,370.939z M256,185.469
	c28.659,0,53.363,17.192,64.388,41.796h-98.347v15.673h103.258c0.797,4.236,1.232,8.597,1.232,13.061
	c0,4.464-0.436,8.825-1.232,13.061H208.98v-62.694h-3.104C218.972,193.087,236.853,185.469,256,185.469z M182.857,222.041h10.449
	v67.918h-10.449V222.041z M167.184,239.02v33.959l-34.596,25.947l-63.162-35.09h25.963c3.235,9.121,11.945,15.673,22.162,15.673
	c12.964,0,23.51-10.546,23.51-23.51c0-12.964-10.546-23.51-23.51-23.51c-10.217,0-18.927,6.552-22.162,15.673H69.426l63.161-35.09
	L167.184,239.02z M109.714,256c0-4.322,3.515-7.837,7.837-7.837c4.322,0,7.837,3.515,7.837,7.837s-3.515,7.837-7.837,7.837
	C113.229,263.837,109.714,260.322,109.714,256z M15.673,248.163h15.673v3.226l-8.3,4.611l8.3,4.611v3.226H15.673V248.163z"/>
<g>
</g>
<g>
</g>
<g>
</g>
<g>
</g>
<g>
</g>
<g>
</g>
<g>
</g>
<g>
</g>
<g>
</g>
<g>
</g>
<g>
</g>
<g>
</g>
<g>
</g>
<g>
</g>
<g>
</g>
</svg>
